HIERARCHY
ROOT Hips
{
	OFFSET 0.000000 0.000000 0.000000
	CHANNELS 6 Xposition Yposition Zposition Zrotation Yrotation Xrotation 
	JOINT LHipJoint
	{
		OFFSET 0.000000 0.000000 0.000000
		CHANNELS 3 Zrotation Yrotation Xrotation
		JOINT LeftUpLeg
		{
			OFFSET 1.363060 -1.794630 0.839290
			CHANNELS 3 Zrotation Yrotation Xrotation
			JOINT LeftLeg
			{
				OFFSET 2.448110 -6.726130 0.000000
				CHANNELS 3 Zrotation Yrotation Xrotation
				JOINT LeftFoot
				{
					OFFSET 2.562200 -7.039590 0.000000
					CHANNELS 3 Zrotation Yrotation Xrotation
					JOINT LeftToeBase
					{
						OFFSET 0.157640 -0.433110 2.322550
						CHANNELS 3 Zrotation Yrotation Xrotation
						End Site
						{
							OFFSET 0.000000 0.000000 0.000000
						}
					}
				}
			}
		}
	}
	JOINT RHipJoint
	{
		OFFSET 0.000000 0.000000 0.000000
		CHANNELS 3 Zrotation Yrotation Xrotation
		JOINT RightUpLeg
		{
			OFFSET -1.305520 -1.794630 0.839290
			CHANNELS 3 Zrotation Yrotation Xrotation
			JOINT RightLeg
			{
				OFFSET -2.542530 -6.985550 0.000000
				CHANNELS 3 Zrotation Yrotation Xrotation
				JOINT RightFoot
				{
					OFFSET -2.568260 -7.056230 0.000000
					CHANNELS 3 Zrotation Yrotation Xrotation
					JOINT RightToeBase
					{
						OFFSET -0.164730 -0.452590 2.363150
						CHANNELS 3 Zrotation Yrotation Xrotation
						End Site
						{
							OFFSET 0.000000 0.000000 0.000000
						}
					}
				}
			}
		}
	}
}
MOTION
Frames: 33
Frame Time: 0.008333
-21.211282 16.251396 -2.701695 -172.482315 87.526662 -168.343077 -11.087578 6.029301 1.052215 0.638116 10.089687 19.690204 -0.884999 1.056858 10.433990 0.752096 5.047309 5.764548 1.098800 0.000000 -80.626800 9.060383 0.017739 1.775828 10.897705 -7.508313 -43.229579 1.748058 -2.015711 33.387189 -1.887168 -7.874743 -5.249364 -0.990800 -0.000000 -25.166000
-21.024886 16.266170 -2.660959 -170.931500 87.458809 -166.854355 -11.151267 6.160133 1.171403 1.127608 9.780285 19.655345 -0.765243 1.187106 11.157088 0.748250 4.739298 7.776381 1.153700 -0.000000 -82.684100 9.037467 -0.029930 1.750381 11.033447 -7.447841 -42.980237 1.688930 -2.077890 34.501138 -1.922200 -7.924816 -5.961943 -0.859500 -0.000000 -23.716900
-20.838263 16.283726 -2.618890 -169.105254 87.413534 -165.081086 -11.233639 6.287052 1.292123 1.618649 9.435087 19.517644 -0.635870 1.319968 12.019236 0.760300 4.388871 9.890073 1.168700 0.000001 -84.372800 8.996841 -0.081433 1.735009 11.192904 -7.292580 -42.632031 1.646047 -2.120680 35.505674 -1.953455 -7.917840 -6.830240 -0.696800 -0.000000 -21.888900
-20.652423 16.303840 -2.575400 -167.190046 87.373802 -163.210541 -11.329801 6.403338 1.413443 2.100151 9.056616 19.268140 -0.497408 1.451360 13.037246 0.790932 4.000119 12.090162 1.138000 0.000000 -85.549300 8.942380 -0.138200 1.728314 11.368955 -7.061904 -42.183322 1.618139 -2.146191 36.387110 -1.985074 -7.877833 -7.817697 -0.511900 -0.000000 -19.723301
-20.467525 16.326255 -2.530768 -165.244380 87.328716 -161.306762 -11.440141 6.505074 1.533170 2.578585 8.660379 18.896634 -0.351454 1.578024 14.230723 0.840728 3.555236 14.366067 1.049400 -0.000001 -86.029400 8.874919 -0.200308 1.726251 11.563610 -6.777471 -41.628993 1.604257 -2.155178 37.133413 -2.021375 -7.829440 -8.894917 -0.311799 -0.000000 -17.145600
-20.284579 16.350579 -2.484920 -163.502782 87.266110 -159.605724 -11.553651 6.583646 1.648497 3.034682 8.253708 18.403240 -0.201936 1.693837 15.602234 0.911904 3.095172 16.649046 0.911400 0.000000 -85.705200 8.803608 -0.267503 1.727165 11.764021 -6.466797 -40.980504 1.601660 -2.151422 37.737492 -2.064800 -7.795036 -10.006398 -0.106500 0.000000 -14.334200
-20.104312 16.376482 -2.438102 -162.048135 87.182604 -158.194903 -11.665365 6.634870 1.755268 3.465088 7.855501 17.786712 -0.054115 1.795281 17.158187 1.003074 2.650573 18.866317 0.736599 0.000000 -84.425800 8.733855 -0.338150 1.727248 11.966020 -6.155160 -40.246049 1.607543 -2.137111 38.197734 -2.116818 -7.792953 -11.107267 0.097101 -0.000000 -11.388800
-19.927457 16.403604 -2.390599 -160.935505 87.079895 -157.134073 -11.770336 6.656059 1.848255 3.864950 7.487345 17.050732 0.086105 1.880478 18.893406 1.111179 2.277758 20.927590 0.556000 -0.000000 -82.172200 8.670850 -0.410157 1.722792 12.164079 -5.866181 -39.436540 1.618977 -2.114328 38.517040 -2.177014 -7.833588 -12.156302 0.293901 -0.000000 -8.439800
-19.754200 16.431640 -2.342744 -160.175842 86.962692 -156.438518 -11.865013 6.646751 1.921803 4.230401 7.171838 16.201727 0.213487 1.950294 20.797462 1.231372 2.050078 22.733529 0.416700 0.000000 -78.997800 8.618397 -0.481679 1.710385 12.352876 -5.620791 -38.564379 1.633145 -2.085044 38.704200 -2.243307 -7.919559 -13.118410 0.479400 -0.000000 -5.636800
-19.585406 16.460258 -2.294848 -159.741144 86.837925 -156.084767 -11.947777 6.608287 1.969833 4.561211 6.933105 15.245800 0.324613 2.008365 22.856848 1.357756 2.043756 24.187524 0.372601 0.000000 -75.008500 8.578406 -0.551404 1.687395 12.528380 -5.434232 -37.642093 1.647874 -2.050997 38.772083 -2.312552 -8.046182 -13.969759 0.650600 -0.000000 -3.114100
-19.421200 16.489247 -2.247219 -159.573169 86.712873 -156.017866 -12.018668 6.543486 1.987868 4.856573 6.787397 14.194356 0.419088 2.059937 25.045750 1.485888 2.333450 25.218022 0.477000 -0.000000 -70.479000 8.550814 -0.618728 1.651661 12.688262 -5.317535 -36.680625 1.662218 -2.013637 38.736010 -2.380944 -8.201240 -14.701506 0.805600 -0.000000 -0.944400
-19.261815 16.518375 -2.200149 -159.605776 86.594419 -156.173606 -12.078757 6.455559 1.973275 5.115547 6.742893 13.060155 0.498803 2.110541 27.332754 1.613192 2.973582 25.777698 0.766200 -0.000000 -65.713600 8.534354 -0.683515 1.602117 12.831280 -5.274997 -35.688920 1.676082 -1.974134 38.611921 -2.444887 -8.369148 -15.316969 -179.056300 0.000000 -0.840700
-19.107097 16.547509 -2.153823 -159.774853 86.488083 -156.488817 -12.129571 6.347735 1.925618 5.336510 6.799296 11.858206 0.566790 2.164867 29.682934 1.738930 3.985247 25.841820 1.247700 0.000000 -60.986800 8.527146 -0.745954 1.538645 12.956768 -5.306027 -34.673967 1.690108 -1.933413 38.415270 -2.501112 -8.532080 -15.828623 -178.934700 0.000000 -2.250200
-18.956793 16.576592 -2.108316 -160.032771 86.398589 -156.914600 -12.172319 6.222863 1.847404 5.514047 6.944219 10.606738 0.626354 2.225582 32.052041 1.864854 5.358705 25.417752 1.899900 -0.000000 -56.620500 8.527271 -0.806222 1.461976 13.064129 -5.404800 -33.639673 1.705297 -1.891999 38.158437 -2.547287 -8.673688 -16.254944 -178.828500 -0.000000 -3.323100
-18.810572 16.605592 -2.063658 -160.340393 86.328925 -157.409322 -12.208290 6.083569 1.742551 5.644967 7.163286 9.320586 0.679555 2.293651 34.399693 1.992723 7.041224 24.524026 2.667200 0.000000 -52.788700 8.532685 -0.864622 1.374086 13.153290 -5.560406 -32.588222 1.722613 -1.850063 37.850986 -2.582364 -8.782133 -16.616527 -178.735900 -0.000000 -4.114500
-18.667600 16.634527 -2.019785 -160.675605 86.281256 -157.948420 -12.238078 5.932687 1.616174 5.727092 7.439567 8.015041 0.726916 2.368554 36.684912 2.123663 8.947811 23.189805 3.470400 -0.000001 -49.509100 8.541818 -0.921415 1.277376 13.224315 -5.760397 -31.519019 1.742801 -1.807503 37.499261 -2.606172 -8.849657 -16.932659 -178.654700 -0.000000 -4.688400
-18.527568 16.663272 -1.976528 -160.984663 86.253137 -158.470158 -12.264684 5.773189 1.472714 5.774118 7.773294 6.680488 0.766934 2.449536 38.895568 2.253921 10.947765 21.412063 4.201500 0.000000 -46.317900 8.550603 -0.978105 1.179201 13.283744 -5.976842 -30.434843 1.765870 -1.763396 37.104928 -2.622287 -8.885333 -17.221311 -178.581600 0.000000 -5.106100
-18.389563 16.691983 -1.933782 -161.307333 86.245733 -159.011106 -12.285293 5.607135 1.321606 5.767484 8.124155 5.345086 0.799219 2.532012 40.966662 2.387811 12.965533 19.316958 4.800800 -0.000000 -43.721900 8.560292 -1.033528 1.079882 13.327136 -6.201869 -29.331945 1.791954 -1.717604 36.667851 -2.631157 -8.887133 -17.493565 -178.515000 -0.000000 -5.426200
-18.253191 16.720642 -1.891381 -161.634051 86.256161 -159.554241 -12.300478 5.437342 1.168875 5.712701 8.483309 4.003856 0.821121 2.613244 42.882491 2.520454 14.883767 16.954066 5.193900 0.000001 -41.376200 8.569068 -1.088300 0.984981 13.358486 -6.413961 -28.211770 1.820298 -1.669317 36.185885 -2.636697 -8.869689 -17.757272 -178.452700 -0.000001 -5.696100
-18.117554 16.749271 -1.849263 -161.984213 86.282071 -160.113113 -12.309204 5.266326 1.021352 5.606043 8.832765 2.658983 0.830447 2.689865 44.621202 2.647679 16.616105 14.408274 5.344600 -0.000000 -39.164300 8.576813 -1.142165 0.897424 13.379015 -6.601170 -27.076052 1.850055 -1.618016 35.656488 -2.641650 -8.844692 -18.014595 -178.393100 -0.000000 -5.953400
-17.982539 16.777789 -1.807333 -162.372013 86.321024 -160.695353 -12.310886 5.095428 0.884700 5.445713 9.160237 1.307419 0.826131 2.758335 46.170246 2.765312 18.103614 11.786170 5.254599 -0.000000 -37.161199 8.583240 -1.194944 0.821194 13.390477 -6.746775 -25.928475 1.879894 -1.563280 35.077498 -2.649753 -8.829460 -18.266035 -178.334500 0.000000 -6.219000
-17.847547 16.806125 -1.765597 -162.822862 86.371849 -161.322141 -12.304502 4.925923 0.763273 5.227505 9.453381 -0.050323 0.807871 2.816061 47.520894 2.868883 19.313847 9.189957 4.955900 -0.000000 -35.446100 8.588922 -1.246031 0.757668 13.393299 -6.844178 -24.772504 1.908697 -1.504927 34.447558 -2.662966 -8.834826 -18.507902 -178.276200 -0.000000 -6.503100
-17.712557 16.834320 -1.724271 -163.362563 86.433205 -162.017061 -12.289154 4.759485 0.659514 4.947903 9.705395 -1.416861 0.774984 2.862361 48.678557 2.952193 20.224307 6.666512 4.484800 -0.000000 -33.705501 8.594756 -1.294863 0.706583 13.387475 -6.897016 -23.613192 1.935570 -1.442894 33.767346 -2.681763 -8.865904 -18.733508 -178.218700 -0.000000 -6.807200
-17.577509 16.862241 -1.683465 -164.001672 86.505703 -162.789328 -12.264966 4.596020 0.574478 4.606080 9.912958 -2.792405 0.729281 2.896142 49.645750 3.013729 20.851247 4.301967 3.908500 0.000000 -32.162499 8.601079 -1.340878 0.667642 13.373411 -6.904457 -22.454515 1.959626 -1.377350 33.039400 -2.706657 -8.927446 -18.938253 -178.162000 -0.000000 -7.118700
-17.442493 16.889783 -1.643415 -164.745268 86.589930 -163.645096 -12.232201 4.435418 0.507169 4.203204 10.077576 -4.176336 0.672110 2.917764 50.432326 3.052207 21.217197 2.127947 3.280501 -0.000000 -30.727700 8.608254 -1.383727 0.639381 13.351127 -6.871450 -21.299197 1.980384 -1.308569 32.266909 -2.736925 -9.018605 -19.116883 -178.107100 0.000000 -7.417400
-17.307413 16.916815 -1.604330 -165.590545 86.687636 -164.584434 -12.191529 4.276963 0.455524 3.742486 10.202709 -5.565726 0.605378 2.927914 51.047307 3.069291 21.361643 0.166770 2.649600 -0.000000 -29.416599 8.616471 -1.423028 0.619361 13.320263 -6.805058 -20.147940 1.997687 -1.236920 31.454016 -2.771057 -9.134307 -19.265573 -178.055300 -0.000000 -7.679601
-17.172596 16.943302 -1.566440 -166.540224 86.799723 -165.613145 -12.143442 4.119910 0.417509 3.227643 10.291160 -6.956462 0.531124 2.927462 51.498456 3.069230 21.336320 -1.573685 2.052900 -0.000000 -28.244500 8.626169 -1.458408 0.604420 13.280245 -6.716271 -19.001393 2.011721 -1.162817 30.605827 -2.806682 -9.265037 -19.381174 -178.008500 -0.000000 -7.881800
-17.038143 16.968890 -1.529795 -167.561743 86.929159 -166.703963 -12.089173 3.962581 0.387743 2.669955 10.356415 -8.340696 0.449799 2.917674 51.795867 3.055686 21.181046 -3.132574 1.500000 0.000000 -27.065600 8.636269 -1.490193 0.592934 13.232883 -6.603900 -17.853258 2.022667 -1.086753 29.725402 -2.842971 -9.407123 -19.464867 -177.966900 -0.000001 -7.993400
-16.904119 16.993670 -1.494497 -168.686989 87.074892 -167.891503 -12.027979 3.804612 0.365961 2.071487 10.395332 -9.713580 0.363463 2.899014 51.941210 3.036823 20.961803 -4.510340 1.007600 0.000000 -25.969100 8.648387 -1.517576 0.581222 13.175590 -6.484127 -16.705235 2.030984 -1.009017 28.818418 -2.876693 -9.546353 -19.514869 -177.933100 0.000000 -8.002300
-16.770518 17.017426 -1.460482 -169.912996 87.237044 -169.176446 -11.959796 3.644965 0.349140 1.441137 10.414589 -11.067050 0.272654 2.872013 51.937629 3.018667 20.723795 -5.742196 0.571100 -0.000001 -24.910299 8.662464 -1.540743 0.567693 13.109627 -6.359062 -15.552540 2.036968 -0.930047 27.888430 -2.906787 -9.677549 -19.533218 -177.907500 -0.000000 -7.893399
-16.637273 17.040037 -1.427639 -171.275208 87.414230 -170.594974 -11.883270 3.483595 0.336574 0.784204 10.415255 -12.396102 0.177978 2.836754 51.785440 3.007392 20.509928 -6.853408 0.184100 0.000000 -23.885900 8.679774 -1.559330 0.551410 13.034365 -6.233253 -14.395530 2.040713 -0.849999 26.939439 -2.932242 -9.795579 -19.522025 -177.890401 0.000000 -7.661400
-16.504230 17.061414 -1.395820 -172.818870 87.603194 -172.191643 -11.796668 3.320939 0.328822 0.105087 10.395449 -13.696709 0.080328 2.792969 51.482697 3.008144 20.354324 -7.858201 -0.159300 0.000000 -22.935300 8.701892 -1.573146 0.531855 12.949759 -6.111715 -13.237035 2.042243 -0.769102 25.976509 -2.952371 -9.896869 -19.483440 -177.882000 0.000000 -7.312300
-16.371242 17.081282 -1.364730 -174.583610 87.803141 -174.006026 -11.698416 3.157273 0.324607 -0.589252 10.361572 -14.963756 -0.020508 2.740292 51.029882 3.023111 20.268458 -8.785028 -0.472400 0.000001 -21.989899 8.729734 -1.582652 0.510985 12.857801 -5.986982 -12.076157 2.041091 -0.687636 25.002246 -2.968734 -9.987940 -19.421539 -177.880601 0.000001 -6.846000
